<svg id="Capa_1" enable-background="new 0 0 512 512" height="512" viewBox="0 0 512 512" width="512" xmlns="http://www.w3.org/2000/svg"><g><g><g><g><g><g><g><g><g><g><circle cx="256" cy="256" fill="#a3d4ff" r="256"/></g></g></g></g></g></g></g></g></g><path d="m512 256c0-10.911-.683-21.663-2.008-32.215l-131.856-131.857-12.34 47.29-25.658-25.658-90.138-15.741-59.721 22.348-28.239-28.239-25.188 239.532-59.852 11.979 23.303 23.303-2.204 1.457 143.397 143.397c4.8.268 9.636.404 14.503.404 141.386 0 256.001-114.615 256.001-256z" fill="#65b1fc"/><g><g><path d="m133.864 91.928h28.176v179.837h-28.176z" fill="#555a66"/></g><g><path d="m349.96 91.928h28.176v179.837h-28.176z" fill="#333940"/></g></g><g><path d="m318.925 134.773c-34.697-34.697-91.152-34.697-125.85 0l-21.213-21.213c46.394-46.394 121.883-46.394 168.275 0z" fill="#fff"/></g><g><path d="m255.818 78.766v29.988c22.849-.046 45.712 8.624 63.107 26.018l21.213-21.213c-23.243-23.243-53.789-34.839-84.32-34.793z" fill="#e9edf5"/></g><g><path d="m282.16 171.539c-14.425-14.424-37.897-14.425-52.322-.001l-21.213-21.214c26.122-26.121 68.625-26.12 94.748 0z" fill="#fff"/></g><g><path d="m255.818 130.738v29.986c9.535-.046 19.084 3.556 26.342 10.815l21.213-21.214c-13.107-13.106-30.338-19.632-47.555-19.587z" fill="#e9edf5"/></g><g><g><path d="m98.1 326.498h50.823v41.701h-50.823z" fill="#555a66"/></g><g><path d="m363.077 326.498h50.823v41.701h-50.823z" fill="#333940"/></g></g><g><path d="m77 237.883h358v105.556h-358z" fill="#707789"/></g><g><path d="m255.818 237.883h179.182v105.556h-179.182z" fill="#555a66"/></g><g><circle cx="127.831" cy="286.585" fill="#64e1dc" r="14.82"/></g><g><circle cx="179.411" cy="286.585" fill="#64e1dc" r="14.82"/></g><g><circle cx="230.991" cy="286.585" fill="#64e1dc" r="14.82"/></g><g><circle cx="282.57" cy="286.585" fill="#1cadb5" r="14.82"/></g><g><circle cx="388.488" cy="286.585" fill="#ffce00" r="14.82"/></g></g></svg>