<svg id="Capa_1" enable-background="new 0 0 512 512" height="512" viewBox="0 0 512 512" width="512" xmlns="http://www.w3.org/2000/svg"><g><g><g><g><g><g><g><g><g><g><g><g><g><g><g><g><g><g><g><g><g><g><g><circle cx="256" cy="256" fill="#7584f2" r="256"/></g></g></g></g></g></g></g></g></g></g></g></g></g></g></g></g></g></g></g></g></g></g><path d="m511.467 272.65-153.37-153.37-1.35 5.051-44.382-44.382-167.532 112.312 34.111 34.111-61.274 70.275 43.264 43.265-77.091 46.9 119.838 119.838c16.89 3.507 34.389 5.35 52.319 5.35 135.791 0 246.888-105.725 255.467-239.35z" fill="#4855b7"/><g><path d="m106.13 195.726h154.666v30h-154.666z" fill="#ff8870" transform="matrix(.576 -.817 .817 .576 -94.477 239.24)"/></g><g><path d="m313.536 133.393h30.001v154.666h-30.001z" fill="#ff583e" transform="matrix(.817 -.576 .576 .817 -61.399 227.812)"/></g><g><g><g><circle cx="373.098" cy="270.65" fill="#fdba12" r="33.568"/></g><g><path d="m428.157 386.812h-110.118v-47.757c0-15.712 12.737-28.449 28.449-28.449h53.22c15.712 0 28.449 12.737 28.449 28.449z" fill="#fdba12"/></g></g><g><g><circle cx="138.902" cy="270.65" fill="#ffce00" r="33.568"/></g><g><path d="m193.961 386.812h-110.118v-47.757c0-15.712 12.737-28.449 28.449-28.449h53.22c15.712 0 28.449 12.737 28.449 28.449z" fill="#ffce00"/></g></g></g><g><path d="m319.329 206.514c28.848 0 52.233-23.385 52.233-52.233 0-27.025-20.525-49.256-46.836-51.957-8.871-27.258-34.473-46.965-64.69-46.965-30.835 0-56.863 20.52-65.212 48.645-4.503-1.266-9.246-1.957-14.153-1.957-28.848 0-52.233 23.386-52.233 52.234s23.386 52.233 52.233 52.233z" fill="#fff"/></g><g><path d="m324.726 102.324c-8.871-27.258-34.473-46.965-64.69-46.965-1.316 0-2.619.051-3.916.125v151.03h63.209c28.848 0 52.233-23.385 52.233-52.233.001-27.025-20.524-49.256-46.836-51.957z" fill="#e9edf5"/></g></g></svg>